<svg width="304" height="276" viewBox="0 0 304 276" fill="none" xmlns="http://www.w3.org/2000/svg">
<ellipse cx="152" cy="189" rx="105" ry="87" fill="#2A2525"/>
<path d="M41.8181 84.6426C41.217 80.5188 45.6283 77.5126 49.2466 79.5803L117.18 118.402C120.388 120.235 120.568 124.794 117.515 126.875L60.8671 165.479C57.814 167.56 53.6366 165.724 53.1037 162.068L41.8181 84.6426Z" fill="#2A2525"/>
<path d="M261.996 84.6426C262.597 80.5188 258.185 77.5126 254.567 79.5803L186.633 118.402C183.426 120.235 183.245 124.794 186.298 126.875L242.947 165.479C246 167.56 250.177 165.724 250.71 162.068L261.996 84.6426Z" fill="#2A2525"/>
<path d="M250.986 103.869C251.587 99.7457 247.176 96.7395 243.557 98.8071L214.556 115.38C211.348 117.214 211.168 121.773 214.221 123.853L238.404 140.334C241.458 142.415 245.635 140.58 246.168 136.923L250.986 103.869Z" fill="#54248B"/>
<path d="M53.0747 103.869C52.4737 99.7457 56.885 96.7395 60.5033 98.8071L89.5051 115.38C92.7129 117.214 92.8931 121.773 89.84 123.853L65.6562 140.334C62.6031 142.415 58.4256 140.58 57.8927 136.923L53.0747 103.869Z" fill="#54248B"/>
<ellipse cx="93.5" cy="196" rx="31.5" ry="36" fill="#D9D9D9"/>
<ellipse cx="104" cy="196" rx="15" ry="18" fill="black"/>
<ellipse cx="210.5" cy="196" rx="31.5" ry="36" fill="#D9D9D9"/>
<ellipse cx="201" cy="196" rx="15" ry="18" fill="black"/>
<line x1="247.309" y1="197.34" x2="298.57" y2="182.597" stroke="black" stroke-width="5"/>
<line x1="248" y1="211.5" x2="282" y2="211.5" stroke="black" stroke-width="5"/>
<line x1="242.888" y1="221.663" x2="292.888" y2="240.663" stroke="black" stroke-width="5"/>
<line y1="-2.5" x2="53.3385" y2="-2.5" transform="matrix(-0.961044 -0.276396 -0.276396 0.961044 56.2607 199.743)" stroke="black" stroke-width="5"/>
<line y1="-2.5" x2="34" y2="-2.5" transform="matrix(-1 0 0 1 56.2607 214)" stroke="black" stroke-width="5"/>
<line y1="-2.5" x2="53.4883" y2="-2.5" transform="matrix(-0.934784 0.355218 0.355218 0.934784 62.2607 224)" stroke="black" stroke-width="5"/>
<rect x="41" y="135.556" width="222.891" height="24.4444" fill="black"/>
<rect x="67.4821" width="168.823" height="153.333" rx="18" fill="black"/>
<rect x="67.4821" y="101.111" width="168.823" height="28.8889" fill="#3B00A0"/>
<circle cx="79" cy="225" r="25" fill="#FFF349"/>
<ellipse cx="46" cy="241.5" rx="8" ry="8.5" fill="#FFF349"/>
<ellipse cx="36" cy="263.5" rx="8" ry="8.5" fill="#FFF349"/>
<path d="M100 225C100 236.598 90.3741 246 78.5 246C66.6259 246 57 236.598 57 225C57 213.402 66.6259 204 78.5 204C90.3741 204 100 213.402 100 225Z" fill="#BEF5FE"/>
</svg>
