<svg width="634" height="415" viewBox="0 0 634 415" fill="none" xmlns="http://www.w3.org/2000/svg">
<ellipse cx="227" cy="243" rx="227" ry="112" fill="#B1CCFF"/>
<path d="M394.619 269.312C384.994 262.832 384.546 248.826 393.737 241.744L534.259 133.468C545.238 125.008 561.183 132.537 561.626 146.39L568.258 353.743C568.701 367.596 553.27 376.129 541.772 368.388L394.619 269.312Z" fill="#B1CCFF"/>
<path d="M177 201.5C175.619 201.5 174.5 202.619 174.5 204C174.5 205.381 175.619 206.5 177 206.5L177 201.5ZM177 287.5C223.646 287.5 258.748 282.426 282.263 274.719C294.01 270.87 303.005 266.318 309.105 261.302C315.198 256.292 318.663 250.583 318.625 244.485C318.587 238.392 315.058 232.694 308.921 227.691C302.773 222.68 293.743 218.13 281.981 214.28C258.436 206.575 223.398 201.5 177 201.5L177 206.5C223.102 206.5 257.564 211.55 280.426 219.032C291.866 222.776 300.266 227.086 305.762 231.567C311.27 236.056 313.6 240.483 313.625 244.515C313.65 248.542 311.38 252.958 305.93 257.44C300.487 261.916 292.13 266.224 280.706 269.968C257.877 277.449 223.354 282.5 177 282.5V287.5Z" fill="#A7A7FC"/>
<line x1="561.262" y1="158.458" x2="457.458" y2="225.738" stroke="#A7A7FC" stroke-width="5" stroke-linecap="round"/>
<line x1="2.5" y1="-2.5" x2="126.201" y2="-2.5" transform="matrix(-0.839153 -0.543895 -0.543895 0.839153 567 332)" stroke="#A7A7FC" stroke-width="5" stroke-linecap="round"/>
<line x1="559.542" y1="245.541" x2="504.541" y2="246.458" stroke="#A7A7FC" stroke-width="5" stroke-linecap="round"/>
<circle cx="74.5" cy="242.5" r="38.5" fill="black"/>
<path d="M137.845 139.766C137.164 137.09 134.442 135.473 131.766 136.155C129.09 136.836 127.473 139.558 128.155 142.234L137.845 139.766ZM160 247L164.824 248.316L165.171 247.044L164.845 245.766L160 247ZM128.155 142.234L155.155 248.234L164.845 245.766L137.845 139.766L128.155 142.234ZM155.176 245.684L128.176 344.684L137.824 347.316L164.824 248.316L155.176 245.684Z" fill="#FB4343"/>
<rect x="49.3354" y="157.07" width="189.114" height="22.6111" transform="rotate(-10.2608 49.3354 157.07)" fill="black"/>
<rect x="49.1096" y="29.6842" width="143.24" height="141.833" rx="18" transform="rotate(-10.2608 49.1096 29.6842)" fill="black"/>
<rect x="65.7696" y="121.716" width="143.24" height="26.7222" transform="rotate(-10.2608 65.7696 121.716)" fill="#FB4343"/>
</svg>
