<svg width="50" height="49" viewBox="0 0 50 49" fill="none" xmlns="http://www.w3.org/2000/svg">
<g clip-path="url(#clip0_18_26)">
<mask id="mask0_18_26" style="mask-type:luminance" maskUnits="userSpaceOnUse" x="0" y="0" width="50" height="49">
<path d="M0.399414 0.391418H49.5996V48.6076H0.399414V0.391418Z" fill="white"/>
</mask>
<g mask="url(#mask0_18_26)">
<path d="M47.2305 15.5413L25.8916 0.67097C25.3587 0.299374 24.6431 0.299374 24.1101 0.67097L2.76932 15.5413C1.28544 16.5761 0.399597 18.2595 0.399597 20.0435V43.083C0.399597 46.1306 2.92723 48.6077 6.037 48.6077H43.9618C47.0716 48.6077 49.5992 46.1306 49.5992 43.083L49.5996 20.0435C49.5996 18.2595 48.7142 16.5762 47.2299 15.5413H47.2305ZM46.4 43.6933L32.5299 31.607L46.527 20.9294L46.5273 43.0828C46.525 43.2996 46.4514 43.4925 46.3999 43.6936L46.4 43.6933ZM3.47519 43.0825V20.9291L17.4723 31.6067L3.60215 43.6931C3.54874 43.492 3.47511 43.2991 3.47511 43.0822L3.47519 43.0825ZM20.4596 33.0375H29.539L43.9501 45.5937H6.04775L20.4596 33.0375ZM25.0006 3.7466L45.4039 17.9643L29.5982 30.0229L20.4018 30.0225L4.59609 17.9639L25.0006 3.7466Z" fill="black"/>
</g>
</g>
<defs>
<clipPath id="clip0_18_26">
<rect width="50" height="49" fill="white"/>
</clipPath>
</defs>
</svg>
